<mxfile host="Electron" modified="2024-09-15T20:24:30.157Z" agent="Mozilla/5.0 (Windows NT 10.0; Win64; x64) AppleWebKit/537.36 (KHTML, like Gecko) draw.io/21.6.8 Chrome/114.0.5735.289 Electron/25.5.0 Safari/537.36" etag="xwDJvCqx4M-om87QAj5L" version="21.6.8" type="device">
  <diagram name="Страница — 1" id="hNZvv5ukqvrRfmBeTh6t">
    <mxGraphModel dx="603" dy="588" grid="1" gridSize="10" guides="1" tooltips="1" connect="1" arrows="1" fold="1" page="1" pageScale="1" pageWidth="827" pageHeight="1169" math="0" shadow="0">
      <root>
        <mxCell id="0" />
        <mxCell id="1" parent="0" />
        <mxCell id="lp-9Yc69WTBruMvE6A59-4" value="Redis" style="shape=datastore;whiteSpace=wrap;html=1;" vertex="1" parent="1">
          <mxGeometry x="450" y="350" width="60" height="70" as="geometry" />
        </mxCell>
        <mxCell id="lp-9Yc69WTBruMvE6A59-5" value="PSQL" style="shape=datastore;whiteSpace=wrap;html=1;" vertex="1" parent="1">
          <mxGeometry x="450" y="460" width="60" height="70" as="geometry" />
        </mxCell>
        <mxCell id="lp-9Yc69WTBruMvE6A59-6" value="REST API" style="shape=module;align=left;spacingLeft=20;align=center;verticalAlign=top;whiteSpace=wrap;html=1;" vertex="1" parent="1">
          <mxGeometry x="300" y="420" width="100" height="50" as="geometry" />
        </mxCell>
        <mxCell id="lp-9Yc69WTBruMvE6A59-7" value="" style="endArrow=classic;startArrow=classic;html=1;rounded=0;exitX=1;exitY=0.75;exitDx=0;exitDy=0;entryX=0;entryY=0.5;entryDx=0;entryDy=0;" edge="1" parent="1" source="lp-9Yc69WTBruMvE6A59-6" target="lp-9Yc69WTBruMvE6A59-5">
          <mxGeometry width="50" height="50" relative="1" as="geometry">
            <mxPoint x="388" y="430" as="sourcePoint" />
            <mxPoint x="438" y="380" as="targetPoint" />
          </mxGeometry>
        </mxCell>
        <mxCell id="lp-9Yc69WTBruMvE6A59-8" value="" style="endArrow=classic;startArrow=classic;html=1;rounded=0;exitX=1;exitY=0.25;exitDx=0;exitDy=0;entryX=0;entryY=0.5;entryDx=0;entryDy=0;" edge="1" parent="1" source="lp-9Yc69WTBruMvE6A59-6" target="lp-9Yc69WTBruMvE6A59-4">
          <mxGeometry width="50" height="50" relative="1" as="geometry">
            <mxPoint x="380" y="380" as="sourcePoint" />
            <mxPoint x="430" y="330" as="targetPoint" />
          </mxGeometry>
        </mxCell>
        <mxCell id="lp-9Yc69WTBruMvE6A59-9" value="RabbitMQ" style="shape=module;align=left;spacingLeft=20;align=center;verticalAlign=top;whiteSpace=wrap;html=1;" vertex="1" parent="1">
          <mxGeometry x="190" y="490" width="100" height="50" as="geometry" />
        </mxCell>
        <mxCell id="lp-9Yc69WTBruMvE6A59-10" value="" style="endArrow=classic;html=1;rounded=0;exitX=1;exitY=0.5;exitDx=0;exitDy=0;entryX=0.612;entryY=0.998;entryDx=0;entryDy=0;entryPerimeter=0;" edge="1" parent="1" source="lp-9Yc69WTBruMvE6A59-9" target="lp-9Yc69WTBruMvE6A59-6">
          <mxGeometry width="50" height="50" relative="1" as="geometry">
            <mxPoint x="280" y="410" as="sourcePoint" />
            <mxPoint x="330" y="360" as="targetPoint" />
          </mxGeometry>
        </mxCell>
        <mxCell id="lp-9Yc69WTBruMvE6A59-11" value="WEB-UI" style="shape=module;align=left;spacingLeft=20;align=center;verticalAlign=top;whiteSpace=wrap;html=1;" vertex="1" parent="1">
          <mxGeometry x="190" y="340" width="100" height="50" as="geometry" />
        </mxCell>
        <mxCell id="lp-9Yc69WTBruMvE6A59-12" value="" style="endArrow=classic;html=1;rounded=0;exitX=0.5;exitY=1;exitDx=0;exitDy=0;entryX=0.5;entryY=0;entryDx=0;entryDy=0;" edge="1" parent="1" source="lp-9Yc69WTBruMvE6A59-11" target="lp-9Yc69WTBruMvE6A59-9">
          <mxGeometry width="50" height="50" relative="1" as="geometry">
            <mxPoint x="440" y="180" as="sourcePoint" />
            <mxPoint x="490" y="130" as="targetPoint" />
          </mxGeometry>
        </mxCell>
        <mxCell id="lp-9Yc69WTBruMvE6A59-13" value="" style="endArrow=classic;html=1;rounded=0;exitX=0.619;exitY=-0.001;exitDx=0;exitDy=0;exitPerimeter=0;entryX=1;entryY=1;entryDx=0;entryDy=0;" edge="1" parent="1" source="lp-9Yc69WTBruMvE6A59-6" target="lp-9Yc69WTBruMvE6A59-11">
          <mxGeometry width="50" height="50" relative="1" as="geometry">
            <mxPoint x="440" y="180" as="sourcePoint" />
            <mxPoint x="490" y="130" as="targetPoint" />
          </mxGeometry>
        </mxCell>
      </root>
    </mxGraphModel>
  </diagram>
</mxfile>
